<svg width="32" height="32" viewBox="0 0 32 32" fill="none" xmlns="http://www.w3.org/2000/svg">
<g clip-path="url(#clip0_4_24329)">
<path d="M28.6667 5.33331H25.7778V7.11109H28.4444V26.6666H3.55555V7.11109H6.22222V5.33331H3.33333C3.12554 5.33679 2.92047 5.38116 2.72983 5.4639C2.53919 5.54664 2.36672 5.66612 2.22227 5.81553C2.07782 5.96493 1.96421 6.14133 1.88794 6.33465C1.81168 6.52797 1.77424 6.73441 1.77777 6.9422V26.8355C1.77424 27.0433 1.81168 27.2498 1.88794 27.4431C1.96421 27.6364 2.07782 27.8128 2.22227 27.9622C2.36672 28.1116 2.53919 28.2311 2.72983 28.3138C2.92047 28.3966 3.12554 28.441 3.33333 28.4444H28.6667C28.8744 28.441 29.0795 28.3966 29.2702 28.3138C29.4608 28.2311 29.6333 28.1116 29.7777 27.9622C29.9222 27.8128 30.0358 27.6364 30.112 27.4431C30.1883 27.2498 30.2257 27.0433 30.2222 26.8355V6.9422C30.2257 6.73441 30.1883 6.52797 30.112 6.33465C30.0358 6.14133 29.9222 5.96493 29.7777 5.81553C29.6333 5.66612 29.4608 5.54664 29.2702 5.4639C29.0795 5.38116 28.8744 5.33679 28.6667 5.33331Z" fill="#FAF6EB"/>
<path d="M7.11111 12.4445H8.88889V14.2222H7.11111V12.4445Z" fill="#FAF6EB"/>
<path d="M12.4444 12.4445H14.2222V14.2222H12.4444V12.4445Z" fill="#FAF6EB"/>
<path d="M17.7778 12.4445H19.5555V14.2222H17.7778V12.4445Z" fill="#FAF6EB"/>
<path d="M23.1111 12.4445H24.8889V14.2222H23.1111V12.4445Z" fill="#FAF6EB"/>
<path d="M7.11111 16.8889H8.88889V18.6667H7.11111V16.8889Z" fill="#FAF6EB"/>
<path d="M12.4444 16.8889H14.2222V18.6667H12.4444V16.8889Z" fill="#FAF6EB"/>
<path d="M17.7778 16.8889H19.5555V18.6667H17.7778V16.8889Z" fill="#FAF6EB"/>
<path d="M23.1111 16.8889H24.8889V18.6667H23.1111V16.8889Z" fill="#FAF6EB"/>
<path d="M7.11111 21.3333H8.88889V23.1111H7.11111V21.3333Z" fill="#FAF6EB"/>
<path d="M12.4444 21.3333H14.2222V23.1111H12.4444V21.3333Z" fill="#FAF6EB"/>
<path d="M17.7778 21.3333H19.5555V23.1111H17.7778V21.3333Z" fill="#FAF6EB"/>
<path d="M23.1111 21.3333H24.8889V23.1111H23.1111V21.3333Z" fill="#FAF6EB"/>
<path d="M8.88889 8.88888C9.12464 8.88888 9.35073 8.79523 9.51743 8.62853C9.68413 8.46183 9.77778 8.23574 9.77778 7.99999V2.66666C9.77778 2.43091 9.68413 2.20482 9.51743 2.03812C9.35073 1.87142 9.12464 1.77777 8.88889 1.77777C8.65314 1.77777 8.42705 1.87142 8.26035 2.03812C8.09365 2.20482 8 2.43091 8 2.66666V7.99999C8 8.23574 8.09365 8.46183 8.26035 8.62853C8.42705 8.79523 8.65314 8.88888 8.88889 8.88888Z" fill="#FAF6EB"/>
<path d="M23.1111 8.88888C23.3469 8.88888 23.573 8.79523 23.7397 8.62853C23.9064 8.46183 24 8.23574 24 7.99999V2.66666C24 2.43091 23.9064 2.20482 23.7397 2.03812C23.573 1.87142 23.3469 1.77777 23.1111 1.77777C22.8754 1.77777 22.6493 1.87142 22.4826 2.03812C22.3159 2.20482 22.2222 2.43091 22.2222 2.66666V7.99999C22.2222 8.23574 22.3159 8.46183 22.4826 8.62853C22.6493 8.79523 22.8754 8.88888 23.1111 8.88888Z" fill="#FAF6EB"/>
<path d="M11.5556 5.33331H20.4444V7.11109H11.5556V5.33331Z" fill="#FAF6EB"/>
</g>
<defs>
<clipPath id="clip0_4_24329">
<rect width="32" height="32" fill="white"/>
</clipPath>
</defs>
</svg>
