<svg width="32" height="32" viewBox="0 0 32 32" fill="none" xmlns="http://www.w3.org/2000/svg">
<g clip-path="url(#clip0_4_24350)">
<path d="M22.6667 12L17 18H16.6667L14.6667 10H14C12.9391 10 11.9217 10.4214 11.1716 11.1716C10.4214 11.9217 10 12.9391 10 14V22.6667C17.3333 22.6667 22 26 22 27.3333H9.33333M17.3333 12.824L20 10M0 31.3333H32M15.4067 7.33335C15.4067 7.33335 17.82 6.59068 18.2533 4.96535C18.4146 4.36336 18.3309 3.72201 18.0206 3.18156C17.7102 2.64111 17.1985 2.24554 16.5973 2.08135C16.3001 2.00199 15.9901 1.98219 15.6852 2.0231C15.3803 2.06401 15.0864 2.16482 14.8206 2.31972C14.5548 2.47462 14.3223 2.68056 14.1363 2.92568C13.9504 3.17081 13.8148 3.45028 13.7373 3.74801C13.304 5.37335 15.0187 7.22801 15.0187 7.22801L15.4067 7.33335Z" stroke="#FAF6EB" stroke-width="1.33333"/>
</g>
<defs>
<clipPath id="clip0_4_24350">
<rect width="32" height="32" fill="white"/>
</clipPath>
</defs>
</svg>
