<svg width="32" height="32" viewBox="0 0 32 32" fill="none" xmlns="http://www.w3.org/2000/svg">
<path d="M16 10C17 6.05251 20.7769 4.03688 29 4.00001C29.1315 3.99951 29.2617 4.02504 29.3833 4.07512C29.5048 4.1252 29.6153 4.19884 29.7082 4.29179C29.8012 4.38475 29.8748 4.49519 29.9249 4.61674C29.975 4.73829 30.0005 4.86855 30 5.00001V23C30 23.2652 29.8947 23.5196 29.7071 23.7071C29.5196 23.8947 29.2652 24 29 24C21 24 17.9094 25.6131 16 28M16 10C15 6.05251 11.2231 4.03688 3.00001 4.00001C2.86855 3.99951 2.73829 4.02504 2.61674 4.07512C2.49519 4.1252 2.38475 4.19884 2.29179 4.29179C2.19884 4.38475 2.1252 4.49519 2.07512 4.61674C2.02504 4.73829 1.99951 4.86855 2.00001 5.00001V22.8794C2.00001 23.4969 2.38251 24 3.00001 24C11 24 14.1019 25.625 16 28M16 10V28" stroke="#FCF7F7" stroke-width="1.5" stroke-linecap="round" stroke-linejoin="round"/>
</svg>
