<svg width="32" height="32" viewBox="0 0 32 32" fill="none" xmlns="http://www.w3.org/2000/svg">
<path d="M10.82 21.3333H25.18C25.3844 21.3333 25.5724 21.248 25.744 21.0773C25.9147 20.9058 26 20.7178 26 20.5133V6.15333C26 5.94889 25.9147 5.76089 25.744 5.58933C25.5724 5.41867 25.3844 5.33333 25.18 5.33333H23.3333V13.4867L20.6667 11.8973L18 13.4867V5.33333H10.82C10.6155 5.33333 10.4275 5.41867 10.256 5.58933C10.0853 5.76089 9.99999 5.94889 9.99999 6.15333V20.5133C9.99999 20.7178 10.0853 20.9058 10.256 21.0773C10.4275 21.248 10.6155 21.3333 10.82 21.3333ZM10.82 22.6667C10.2067 22.6667 9.69466 22.4613 9.28399 22.0507C8.87243 21.6391 8.66666 21.1267 8.66666 20.5133V6.15333C8.66666 5.54 8.87243 5.028 9.28399 4.61733C9.69466 4.20578 10.2067 4 10.82 4H25.18C25.7933 4 26.3053 4.20578 26.716 4.61733C27.1275 5.028 27.3333 5.54 27.3333 6.15333V20.5133C27.3333 21.1267 27.128 21.6391 26.7173 22.0507C26.3058 22.4613 25.7933 22.6667 25.18 22.6667H10.82ZM6.81999 26.6667C6.20666 26.6667 5.69466 26.4613 5.28399 26.0507C4.87243 25.6391 4.66666 25.1267 4.66666 24.5133V8.82H5.99999V24.5133C5.99999 24.7178 6.08532 24.9058 6.25599 25.0773C6.42755 25.248 6.61555 25.3333 6.81999 25.3333H22.5133V26.6667H6.81999ZM10.82 5.33333H9.99999H26H10.82Z" fill="#FCF7F7"/>
</svg>
