<svg width="24" height="24" viewBox="0 0 24 24" fill="none" xmlns="http://www.w3.org/2000/svg">
<path d="M2.99999 7.125V6.75C2.99999 6.45163 3.11851 6.16548 3.32949 5.95451C3.54047 5.74353 3.82662 5.625 4.12499 5.625H10.125C10.9072 5.625 11.5972 6.02475 12 6.63075C12.2051 6.32129 12.4838 6.06747 12.8109 5.89197C13.1381 5.71647 13.5037 5.62474 13.875 5.625H19.875C20.1734 5.625 20.4595 5.74353 20.6705 5.95451C20.8815 6.16548 21 6.45163 21 6.75V7.125H21.3742C22.203 7.125 22.875 7.7925 22.875 8.62125V20.6213L22.8742 20.6715V21.3713C22.8742 21.9915 22.3717 22.5 21.7485 22.5H13.299C13.1675 22.7282 12.9782 22.9177 12.7501 23.0495C12.5221 23.1813 12.2634 23.2507 12 23.2507C11.7366 23.2507 11.4779 23.1813 11.2498 23.0495C11.0218 22.9177 10.8325 22.7282 10.701 22.5H2.24999C1.62749 22.5 1.12424 21.999 1.12424 21.3787V8.62125C1.12424 7.7925 1.79624 7.125 2.62499 7.125H2.99999ZM4.12499 6.375C4.02553 6.375 3.93015 6.41451 3.85982 6.48484C3.7895 6.55516 3.74999 6.65054 3.74999 6.75V18C3.74999 18.0995 3.7895 18.1948 3.85982 18.2652C3.93015 18.3355 4.02553 18.375 4.12499 18.375H10.323C10.8087 18.375 11.2755 18.5635 11.625 18.9008V7.875C11.625 7.47718 11.467 7.09565 11.1856 6.81434C10.9043 6.53304 10.5228 6.375 10.125 6.375H4.12499ZM12.375 7.875V18.9008C12.7245 18.5635 13.1913 18.375 13.677 18.375H19.875C19.9744 18.375 20.0698 18.3355 20.1402 18.2652C20.2105 18.1948 20.25 18.0995 20.25 18V6.75C20.25 6.65054 20.2105 6.55516 20.1402 6.48484C20.0698 6.41451 19.9744 6.375 19.875 6.375H13.875C13.4772 6.375 13.0956 6.53304 12.8143 6.81434C12.533 7.09565 12.375 7.47718 12.375 7.875ZM12.0015 19.4085H11.9985L12 19.4115L12.0015 19.4085ZM2.49149 7.887C2.31872 7.9175 2.16223 8.0079 2.04949 8.14231C1.93674 8.27673 1.87496 8.44656 1.87499 8.622V20.6287C1.87499 21.0412 2.20874 21.375 2.62574 21.375H10.917L11.025 21.5625C11.1236 21.7339 11.2657 21.8762 11.4369 21.9752C11.608 22.0741 11.8023 22.1263 12 22.1263C12.1977 22.1263 12.3919 22.0741 12.5631 21.9752C12.7343 21.8762 12.8763 21.7339 12.975 21.5625L13.083 21.375H21.3742C21.7882 21.375 22.125 21.0368 22.125 20.6213V8.62125C22.125 8.44571 22.0631 8.27578 21.9502 8.14135C21.8373 8.00692 21.6806 7.9166 21.5077 7.88625L21.75 8.25V19.125C21.75 19.4234 21.6315 19.7095 21.4205 19.9205C21.2095 20.1315 20.9234 20.25 20.625 20.25H12.4192L12 21.0885L11.5807 20.25H3.37499C3.07662 20.25 2.79047 20.1315 2.57949 19.9205C2.36851 19.7095 2.24999 19.4234 2.24999 19.125V8.25L2.49149 7.887Z" fill="#FAF6EB"/>
</svg>
