<svg width="24" height="24" viewBox="0 0 24 24" fill="none" xmlns="http://www.w3.org/2000/svg">
<path fill-rule="evenodd" clip-rule="evenodd" d="M8 16C8.00004 15.3316 8.16756 14.6739 8.48726 14.0869C8.80697 13.5 9.26866 13.0025 9.83016 12.6399C10.3917 12.2773 11.0351 12.0612 11.7016 12.0114C12.3681 11.9615 13.0365 12.0795 13.6457 12.3544C14.2549 12.6294 14.7855 13.0527 15.189 13.5856C15.5924 14.1184 15.856 14.7439 15.9554 15.4048C16.0549 16.0658 15.9872 16.7411 15.7585 17.3691C15.5297 17.9972 15.1473 18.5579 14.646 19H9.354C8.92782 18.6251 8.58657 18.1636 8.35307 17.6462C8.11957 17.1288 7.9992 16.5676 8 16ZM8.97 21H21C21.2652 21 21.5196 20.8946 21.7071 20.7071C21.8946 20.5196 22 20.2652 22 20C22 19.7348 21.8946 19.4804 21.7071 19.2929C21.5196 19.1054 21.2652 19 21 19H17.197C17.7233 18.0879 18.0002 17.0533 18 16.0002C17.9998 14.9471 17.7224 13.9127 17.1957 13.0007C16.6691 12.0888 15.9117 11.3316 14.9996 10.8051C14.0876 10.2786 13.0531 10.0015 12 10.0015C10.9469 10.0015 9.9124 10.2786 9.00037 10.8051C8.08834 11.3316 7.33094 12.0888 6.80427 13.0007C6.2776 13.9127 6.00022 14.9471 6 16.0002C5.99978 17.0533 6.27672 18.0879 6.803 19H3C2.73478 19 2.48043 19.1054 2.29289 19.2929C2.10536 19.4804 2 19.7348 2 20C2 20.2652 2.10536 20.5196 2.29289 20.7071C2.48043 20.8946 2.73478 21 3 21H8.97ZM19.071 8.929C19.2585 9.11653 19.3638 9.37084 19.3638 9.636C19.3638 9.90116 19.2585 10.1555 19.071 10.343L18.364 11.05C18.1754 11.2322 17.9228 11.333 17.6606 11.3307C17.3984 11.3284 17.1476 11.2232 16.9622 11.0378C16.7768 10.8524 16.6716 10.6016 16.6693 10.3394C16.667 10.0772 16.7678 9.8246 16.95 9.636L17.657 8.929C17.8445 8.74153 18.0988 8.63621 18.364 8.63621C18.6292 8.63621 18.8835 8.74153 19.071 8.929ZM4 17C4.26522 17 4.51957 16.8946 4.70711 16.7071C4.89464 16.5196 5 16.2652 5 16C5 15.7348 4.89464 15.4804 4.70711 15.2929C4.51957 15.1054 4.26522 15 4 15H3C2.73478 15 2.48043 15.1054 2.29289 15.2929C2.10536 15.4804 2 15.7348 2 16C2 16.2652 2.10536 16.5196 2.29289 16.7071C2.48043 16.8946 2.73478 17 3 17H4ZM22 16C22 16.2652 21.8946 16.5196 21.7071 16.7071C21.5196 16.8946 21.2652 17 21 17H20C19.7348 17 19.4804 16.8946 19.2929 16.7071C19.1054 16.5196 19 16.2652 19 16C19 15.7348 19.1054 15.4804 19.2929 15.2929C19.4804 15.1054 19.7348 15 20 15H21C21.2652 15 21.5196 15.1054 21.7071 15.2929C21.8946 15.4804 22 15.7348 22 16ZM5.636 11.05C5.8246 11.2322 6.0772 11.333 6.3394 11.3307C6.6016 11.3284 6.85241 11.2232 7.03782 11.0378C7.22323 10.8524 7.3284 10.6016 7.33067 10.3394C7.33295 10.0772 7.23216 9.8246 7.05 9.636L6.343 8.929C6.25075 8.83349 6.14041 8.75731 6.0184 8.7049C5.8964 8.65249 5.76518 8.6249 5.6324 8.62375C5.49962 8.6226 5.36794 8.6479 5.24505 8.69818C5.12215 8.74846 5.0105 8.82271 4.9166 8.9166C4.82271 9.0105 4.74846 9.12215 4.69818 9.24505C4.6479 9.36794 4.6226 9.49962 4.62375 9.6324C4.6249 9.76518 4.65249 9.8964 4.7049 10.0184C4.75731 10.1404 4.83349 10.2508 4.929 10.343L5.636 11.05ZM13 5.586V3C13 2.73478 12.8946 2.48043 12.7071 2.29289C12.5196 2.10536 12.2652 2 12 2C11.7348 2 11.4804 2.10536 11.2929 2.29289C11.1054 2.48043 11 2.73478 11 3V5.586L10.707 5.293C10.5184 5.11084 10.2658 5.01005 10.0036 5.01233C9.7414 5.0146 9.49059 5.11977 9.30518 5.30518C9.11977 5.49059 9.0146 5.7414 9.01233 6.0036C9.01005 6.2658 9.11084 6.5184 9.293 6.707L11.292 8.706L11.302 8.716C11.4901 8.90044 11.7436 9.00292 12.0071 9.00105C12.2705 8.99917 12.5225 8.8931 12.708 8.706L14.708 6.707C14.8955 6.51936 15.0008 6.26492 15.0007 5.99965C15.0006 5.73438 14.8951 5.48001 14.7075 5.2925C14.5199 5.10499 14.2654 4.9997 14.0001 4.9998C13.7349 4.99989 13.4805 5.10536 13.293 5.293L13 5.586Z" fill="black"/>
</svg>
