<svg width="24" height="24" viewBox="0 0 24 24" fill="none" xmlns="http://www.w3.org/2000/svg">
<path d="M15.5 17.5C15.5 17.0404 15.4095 16.5852 15.2336 16.1606C15.0577 15.736 14.7999 15.3501 14.4749 15.0251C14.1499 14.7001 13.764 14.4423 13.3394 14.2664C12.9148 14.0905 12.4596 14 12 14C11.5404 14 11.0852 14.0905 10.6606 14.2664C10.236 14.4423 9.85013 14.7001 9.52513 15.0251C9.20012 15.3501 8.94231 15.736 8.76642 16.1606C8.59053 16.5852 8.5 17.0404 8.5 17.5M11.9 3V10M11.9 3L8.3 6.6M11.9 3L15.5 6.6M5.898 11.398L7.176 12.676M3 17.4H4.8M19 17.4H20.8M16.624 12.676L17.902 11.398M21 21H3" stroke="black" stroke-width="1.5" stroke-linecap="round" stroke-linejoin="round"/>
</svg>
