<svg width="24" height="24" viewBox="0 0 24 24" fill="none" xmlns="http://www.w3.org/2000/svg">
<path d="M21.8944 13.334C21.7982 13.2376 21.6775 13.1692 21.5454 13.1362C21.4133 13.1032 21.2746 13.1067 21.1444 13.1465C19.7143 13.5789 18.1937 13.6151 16.7446 13.2514C15.2956 12.8877 13.9723 12.1377 12.9159 11.0813C11.8595 10.0249 11.1094 8.7016 10.7457 7.25254C10.382 5.80347 10.4183 4.28288 10.8506 2.85279C10.8908 2.72248 10.8946 2.5837 10.8617 2.45137C10.8289 2.31903 10.7606 2.19816 10.6642 2.10175C10.5678 2.00534 10.4469 1.93703 10.3146 1.90418C10.1822 1.87132 10.0434 1.87517 9.91313 1.91529C7.93597 2.52096 6.2002 3.73478 4.95282 5.38404C3.86195 6.83234 3.19655 8.55614 3.03138 10.3618C2.8662 12.1674 3.20779 13.9833 4.01776 15.6055C4.82774 17.2277 6.07401 18.5919 7.61656 19.5448C9.15912 20.4978 10.9368 21.0017 12.75 21C14.8653 21.0065 16.9244 20.3188 18.6113 19.0425C20.2605 17.7951 21.4743 16.0593 22.08 14.0822C22.1197 13.9523 22.1233 13.8142 22.0907 13.6824C22.058 13.5507 21.9901 13.4303 21.8944 13.334ZM17.7094 17.8444C16.1208 19.0408 14.1535 19.6232 12.1696 19.4843C10.1858 19.3454 8.31882 18.4945 6.91251 17.0884C5.5062 15.6822 4.65517 13.8153 4.5161 11.8314C4.37703 9.84753 4.95926 7.88019 6.15563 6.29154C6.93507 5.26222 7.94275 4.42784 9.09938 3.85404C9.03349 4.31644 9.00028 4.78291 9 5.24998C9.00273 7.835 10.0308 10.3134 11.8587 12.1413C13.6866 13.9691 16.165 14.9972 18.75 15C19.218 14.9998 19.6854 14.9666 20.1488 14.9006C19.5744 16.0574 18.7394 17.0651 17.7094 17.8444Z" fill="black"/>
</svg>
