<svg width="24" height="24" viewBox="0 0 24 24" fill="none" xmlns="http://www.w3.org/2000/svg">
<path d="M21 12C20.7444 11.9999 20.4908 12.0437 20.25 12.1294V12C20.25 8.08313 17.3372 6.14437 15.21 4.72875C13.89 3.84937 12.75 3.09375 12.75 2.25C12.75 2.05109 12.671 1.86032 12.5303 1.71967C12.3897 1.57902 12.1989 1.5 12 1.5C11.8011 1.5 11.6103 1.57902 11.4697 1.71967C11.329 1.86032 11.25 2.05109 11.25 2.25C11.25 3.09375 10.11 3.84937 8.79 4.72875C6.66281 6.14437 3.75 8.08313 3.75 12V12.1294C3.41069 12.0094 3.04754 11.9726 2.69105 12.022C2.33457 12.0714 1.99513 12.2056 1.70125 12.4134C1.40736 12.6211 1.16759 12.8963 1.00207 13.2159C0.836554 13.5355 0.750111 13.8901 0.75 14.25V19.5C0.75 19.6989 0.829018 19.8897 0.96967 20.0303C1.11032 20.171 1.30109 20.25 1.5 20.25H7.5C7.69891 20.25 7.88968 20.171 8.03033 20.0303C8.17098 19.8897 8.25 19.6989 8.25 19.5V16.5C8.25 16.3011 8.32902 16.1103 8.46967 15.9697C8.61032 15.829 8.80109 15.75 9 15.75C9.19891 15.75 9.38968 15.829 9.53033 15.9697C9.67098 16.1103 9.75 16.3011 9.75 16.5V19.5C9.75 19.6989 9.82902 19.8897 9.96967 20.0303C10.1103 20.171 10.3011 20.25 10.5 20.25H13.5C13.6989 20.25 13.8897 20.171 14.0303 20.0303C14.171 19.8897 14.25 19.6989 14.25 19.5V16.5C14.25 16.3011 14.329 16.1103 14.4697 15.9697C14.6103 15.829 14.8011 15.75 15 15.75C15.1989 15.75 15.3897 15.829 15.5303 15.9697C15.671 16.1103 15.75 16.3011 15.75 16.5V19.5C15.75 19.6989 15.829 19.8897 15.9697 20.0303C16.1103 20.171 16.3011 20.25 16.5 20.25H22.5C22.6989 20.25 22.8897 20.171 23.0303 20.0303C23.171 19.8897 23.25 19.6989 23.25 19.5V14.25C23.25 13.6533 23.0129 13.081 22.591 12.659C22.169 12.2371 21.5967 12 21 12ZM9.62156 5.9775C10.5281 5.37375 11.4028 4.78875 12 4.1025C12.5944 4.79156 13.4719 5.37656 14.3784 5.9775C16.2534 7.22625 18.3609 8.62969 18.7013 11.25H5.295C5.63906 8.62969 7.74375 7.22625 9.62156 5.9775ZM2.25 14.25C2.25 14.0511 2.32902 13.8603 2.46967 13.7197C2.61032 13.579 2.80109 13.5 3 13.5C3.19891 13.5 3.38968 13.579 3.53033 13.7197C3.67098 13.8603 3.75 14.0511 3.75 14.25V18.75H2.25V14.25ZM15 14.25C14.4033 14.25 13.831 14.4871 13.409 14.909C12.9871 15.331 12.75 15.9033 12.75 16.5V18.75H11.25V16.5C11.25 15.9033 11.0129 15.331 10.591 14.909C10.169 14.4871 9.59674 14.25 9 14.25C8.40326 14.25 7.83097 14.4871 7.40901 14.909C6.98705 15.331 6.75 15.9033 6.75 16.5V18.75H5.25V12.75H18.75V18.75H17.25V16.5C17.25 15.9033 17.0129 15.331 16.591 14.909C16.169 14.4871 15.5967 14.25 15 14.25ZM21.75 18.75H20.25V14.25C20.25 14.0511 20.329 13.8603 20.4697 13.7197C20.6103 13.579 20.8011 13.5 21 13.5C21.1989 13.5 21.3897 13.579 21.5303 13.7197C21.671 13.8603 21.75 14.0511 21.75 14.25V18.75Z" fill="#FAF6EB"/>
</svg>
