<svg width="24" height="25" viewBox="0 0 24 25" fill="none" xmlns="http://www.w3.org/2000/svg">
<path d="M14 2.5C15.3261 2.5 16.5979 3.02678 17.5355 3.96447C18.4732 4.90215 19 6.17392 19 7.5V21.5C19 21.681 18.9509 21.8587 18.8579 22.014C18.7648 22.1693 18.6314 22.2965 18.4718 22.3819C18.3121 22.4673 18.1323 22.5078 17.9515 22.499C17.7707 22.4902 17.5956 22.4325 17.445 22.332L12 18.702L6.556 22.332C6.4133 22.4275 6.2484 22.4847 6.0772 22.4979C5.906 22.5112 5.73426 22.4802 5.57853 22.4079C5.4228 22.3355 5.28832 22.2243 5.18804 22.0849C5.08776 21.9455 5.02507 21.7827 5.006 21.612L5 21.5V7.5C5 6.17392 5.52678 4.90215 6.46447 3.96447C7.40215 3.02678 8.67392 2.5 10 2.5H14Z" fill="#A85000"/>
</svg>
