<svg width="24" height="24" viewBox="0 0 24 24" fill="none" xmlns="http://www.w3.org/2000/svg">
<g clip-path="url(#clip0_4_25166)">
<path d="M14.55 5.34C14.55 2.6025 12.3225 0.375 9.59253 0.375C6.85503 0.375 4.62753 2.6025 4.62753 5.34C4.62753 8.07 6.85503 10.2975 9.59253 10.2975C12.3225 10.2975 14.55 8.07 14.55 5.34ZM9.59253 10.875C4.83003 10.875 0.967529 14.745 0.967529 19.5V21C0.967529 22.4475 2.14503 23.625 3.59253 23.625H15.5925C17.0325 23.625 18.2175 22.4475 18.2175 21V19.5C18.2175 14.745 14.3475 10.875 9.59253 10.875ZM21.1155 6.1125L18.3285 8.8995L17.3055 7.87725C17.2022 7.76803 17.078 7.68064 16.9403 7.62024C16.8026 7.55985 16.6541 7.52767 16.5038 7.52561C16.3534 7.52356 16.2042 7.55167 16.0649 7.60828C15.9256 7.66489 15.799 7.74885 15.6927 7.8552C15.5864 7.96156 15.5025 8.08814 15.446 8.22747C15.3894 8.36681 15.3614 8.51606 15.3635 8.66642C15.3656 8.81677 15.3979 8.96518 15.4584 9.10286C15.5188 9.24053 15.6063 9.3647 15.7155 9.468L17.5335 11.286C17.6378 11.3908 17.7617 11.4739 17.8982 11.5307C18.0347 11.5874 18.1811 11.6166 18.3289 11.6166C18.4767 11.6166 18.6231 11.5874 18.7596 11.5307C18.8961 11.4739 19.02 11.3908 19.1243 11.286L22.7063 7.70325C22.8168 7.60026 22.9055 7.47606 22.9669 7.33806C23.0284 7.20006 23.0615 7.05109 23.0642 6.90003C23.0668 6.74898 23.039 6.59894 22.9825 6.45885C22.9259 6.31877 22.8417 6.19152 22.7348 6.08469C22.628 5.97786 22.5008 5.89365 22.3607 5.83707C22.2206 5.78048 22.0705 5.7527 21.9195 5.75536C21.7684 5.75803 21.6195 5.79109 21.4815 5.85258C21.3435 5.91407 21.2193 6.00272 21.1163 6.11325L21.1155 6.1125Z" fill="url(#paint0_linear_4_25166)"/>
</g>
<defs>
<linearGradient id="paint0_linear_4_25166" x1="12.0159" y1="0.375" x2="12.0159" y2="23.625" gradientUnits="userSpaceOnUse">
<stop stop-color="#A85000"/>
<stop offset="1" stop-color="#522700"/>
</linearGradient>
<clipPath id="clip0_4_25166">
<rect width="24" height="24" fill="white"/>
</clipPath>
</defs>
</svg>
