<svg width="16" height="16" viewBox="0 0 16 16" fill="none" xmlns="http://www.w3.org/2000/svg">
<path d="M8.02381 15.2L0.631813 7.808L7.99181 0.447999L15.3838 7.84L8.02381 15.2ZM8.00781 14.192L14.4078 7.792L8.00781 1.408L1.62381 7.792L8.00781 14.192ZM2.79181 13.024V2.608H13.2398V13.024H2.79181ZM3.47981 12.32H12.5198V3.28H3.47981V12.32ZM8.00781 9.312C7.59181 9.312 7.23448 9.16267 6.93581 8.864C6.63715 8.56533 6.48781 8.208 6.48781 7.792C6.48781 7.376 6.63715 7.01867 6.93581 6.72C7.23448 6.42133 7.59181 6.272 8.00781 6.272C8.42381 6.272 8.78115 6.42133 9.07981 6.72C9.37848 7.01867 9.52781 7.376 9.52781 7.792C9.52781 8.208 9.37848 8.56533 9.07981 8.864C8.78115 9.16267 8.42381 9.312 8.00781 9.312ZM8.00781 8.736C8.27448 8.736 8.49848 8.64 8.67981 8.448C8.86115 8.256 8.95181 8.03733 8.95181 7.792C8.95181 7.52533 8.86115 7.30133 8.67981 7.12C8.49848 6.928 8.27448 6.832 8.00781 6.832C7.74115 6.832 7.51715 6.928 7.33581 7.12C7.15448 7.30133 7.06381 7.52533 7.06381 7.792C7.06381 8.03733 7.15448 8.256 7.33581 8.448C7.51715 8.64 7.74115 8.736 8.00781 8.736Z" fill="#A85000"/>
</svg>
